<svg xmlns="http://www.w3.org/2000/svg" width="220" height="76.38" viewBox="0 0 220 76.38">
  <path id="Trazado_100536" data-name="Trazado 100536" d="M-433.617,637.728c1.136.2,2.667-.466,3.559.4.1,3.577,0,7.162.04,10.743-1.194-.013-2.387-.018-3.577-.022-.022-3.71.009-7.415-.022-11.12m-8.627.408c.91-.883,2.476-.217,3.652-.395-.115.391-.346,1.167-.462,1.553a5.288,5.288,0,0,1,4.784-1.766,12.572,12.572,0,0,1-.151,3.137,3.714,3.714,0,0,0-3.976,1c-.581,2.356-.24,4.824-.244,7.224-.209.031-.63.089-.839.12a3.64,3.64,0,0,0-2.534.151,10.321,10.321,0,0,1-.271-3.541c.044-2.494-.071-4.992.04-7.486m-9.874,2.285c1.757-3.315,6.727-3.861,9.492-1.487a18.675,18.675,0,0,0-2.157,2.467c-.661-.373-1.336-.732-2-1.087-.71.355-1.42.706-2.143,1.025a3.642,3.642,0,0,0,.675,4.446,2.512,2.512,0,0,0,3.288-.422,24.919,24.919,0,0,0,2.205,2.179c-1.948,2.507-6.057,2.117-8.289.16-.364-.506-.754-.994-1.145-1.473-.728-1.828-1.123-4.087.075-5.809m-38.354-2.711c1.211.022,2.432.027,3.652.013.852,2.5,1.7,5.037,2.8,7.451a72.884,72.884,0,0,0,2.552-7.446c1.127,0,2.254,0,3.381.013a6.526,6.526,0,0,1-.386,1.566c-1.318,3.173-2.543,6.381-3.847,9.558-1.251-.018-2.5-.018-3.754.022-.839-1.935-1.571-3.914-2.37-5.862-.621-1.8-1.713-3.417-2.028-5.316m-4.2-.009c1.172.031,2.347.031,3.523.018.209,3.568.009,7.145.111,10.712-.155.169-.466.5-.617.67a8.728,8.728,0,0,0-3-.24c0-3.719.04-7.442-.022-11.16m-16.53,6.541a2.069,2.069,0,0,0-.9,2.112,3.425,3.425,0,0,0,3.2.2c.919-.382.927-1.522,1.291-2.3-1.149-.568-2.392-.022-3.594,0m-3.554-5.032a8.45,8.45,0,0,1,7.477-1.424,3.824,3.824,0,0,1,2.432,3.346,51.115,51.115,0,0,1,.28,7.735c-1.087-.013-2.166-.009-3.248.013.018-.337.058-1.007.075-1.345a5.079,5.079,0,0,1-3.235,1.74c-1.327.28-2.481-.532-3.6-1.1a7.815,7.815,0,0,1-.9-2.347,4,4,0,0,1,1.464-2.938c1.948-1.083,4.14-.812,6.253-1.158a2.537,2.537,0,0,0-2.907-1.913,8.733,8.733,0,0,0-2.276,1.22q-.9-.932-1.819-1.828m90.087,2.955c-.692,1.282.044,2.8.932,3.785a8.134,8.134,0,0,0,3.124-.009A4.831,4.831,0,0,0-419.43,644a3.055,3.055,0,0,0-2.889-3.6,3.035,3.035,0,0,0-2.352,1.766m-.395-2.947c1.056-.808,2.117-1.948,3.581-1.717,3.1-.324,5.7,2.694,5.578,5.676a7.5,7.5,0,0,1-2.108,5.045,4.746,4.746,0,0,1-6.519-.47c.036,2.019.071,4.038.018,6.057-.879.87-2.432.16-3.568.382-.018-5.5.04-11-.027-16.49,1.074.027,2.148.031,3.226.036-.044.373-.133,1.114-.182,1.482m-49.51,2.725q2.469.06,4.943,0c-.262-.635-.4-1.46-1.163-1.682-1.451-.892-3.146.355-3.781,1.677m-3.04-.142c.848-3.807,6.035-5.551,9.155-3.421,1.775,1.269,2.072,3.594,2.268,5.6-.107.107-.311.315-.413.417-2.609.062-5.219-.018-7.828.027a3.335,3.335,0,0,0,2.773,2.232c.422-.124.843-.24,1.269-.355a2.611,2.611,0,0,1,1.438-.883c.674.537,1.385,1.03,2.086,1.54-2.529,3.555-8.418,2.813-10.4-.941-.3-1.376-.808-2.813-.351-4.22m64.287-7.349c1.087-.084,2.179-.022,3.275-.04,0,1.1,0,2.205,0,3.31a26.236,26.236,0,0,1,2.707.049c.781.612.253,1.806.4,2.667q-1.564-.02-3.124-.018a38.3,38.3,0,0,0,.213,5.618,2.875,2.875,0,0,0,2.45.133c.12.093.351.28.47.373-.115.763.222,1.7-.222,2.361a7.046,7.046,0,0,1-4.788-.071l-1.242-1.243c-.852-2.161-.253-4.508-.488-6.758-.373-.737-1.336-.271-1.953-.4a11.169,11.169,0,0,1-.111-2.72c.7.009,1.4.022,2.108.036.169-1.056-.426-2.445.3-3.3m-88.862-.044c1.189.018,2.383.018,3.577.031q.007,1.657.009,3.315c.976-.022,1.953-.036,2.938-.058-.022.914-.031,1.833-.04,2.751-.981-.018-1.961-.036-2.938-.067.053,1.753.049,3.51.027,5.267a2.646,2.646,0,0,0,2.947.4c-.027.958-.036,1.917-.058,2.88-1.957.63-4.633.666-5.951-1.172-.976-2.3-.324-4.912-.5-7.34q-1.118.007-2.237.027c.142-.87-.373-2.055.4-2.685.617-.035,1.234-.04,1.855-.018-.031-1.109-.035-2.223-.031-3.333m-30.18-1.771c1.664.022,3.333.022,5-.009a118.1,118.1,0,0,0,6.807,11.1q-.027-5.531,0-11.067c1.194-.009,2.383-.009,3.577-.022q-.007,8.114,0,16.233c-1.566-.018-3.133-.022-4.7,0-2.49-3.772-4.642-7.752-7.078-11.56,0,3.87-.067,7.735.04,11.6-1.216-.062-2.436-.062-3.652-.049.04-5.4.013-10.81.013-16.219m98.482,2.276c-.013-1.092.368-2.654,1.708-2.72a2.165,2.165,0,0,1,2.245,2.911,2.833,2.833,0,0,1-2.6,1.163c-.439-.466-.892-.919-1.353-1.353m-26.581-2.654c2.245-.213,4.908-.08,6.461,1.8-.865.817-1.708,1.655-2.512,2.529a3.609,3.609,0,0,0-4.646-.448c-.115.262-.346.794-.457,1.061.111.257.342.768.453,1.025,1.651,1.092,3.745,1.069,5.356,2.237,2.1,1.176,2.33,4.256,1.167,6.159-2.418,3.625-8.01,3.466-11.107.839.794-1.043,1.637-2.041,2.507-3.022a5.075,5.075,0,0,0,3.137,1.779c.692-.226,1.384-.453,2.077-.688q.3-.652.612-1.291a3.7,3.7,0,0,0-2.263-1.819,19.3,19.3,0,0,1-4.26-1.788,5.1,5.1,0,0,1-1.034-4.864c.648-1.961,2.6-3.08,4.509-3.51m-34.449,1.26c.466-.457.932-.919,1.389-1.385a2.558,2.558,0,0,1,2.844,1.926c-.257.51-.51,1.025-.763,1.544-.51.244-1.021.493-1.522.745a2.481,2.481,0,0,1-1.948-2.831m-119.241-15.039c-.053,3.275,0,6.554-.022,9.829-.031,1.992.2,4.043-.43,5.968a6.537,6.537,0,0,1-4.118,3.661c-.541-.013-1.282-.28-1.438.439.994.679,2.4.155,3.257,1.069a7.626,7.626,0,0,1,2.3,2.924c.617,1.908.395,3.936.426,5.911.022,3.288-.036,6.576.022,9.865a6.655,6.655,0,0,0,5.245,5.56c2.445.013,4.89,0,7.335.009-.04-10.575.022-21.154-.031-31.728,2.387,2.6,4.446,5.485,6.705,8.2q8.374,10.47,16.761,20.932a11.741,11.741,0,0,0,2.343,2.547c2.365.124,4.744.009,7.113.04,2.458-.63,4.939-2.454,5.232-5.134.067-3.87.018-7.743.018-11.613.053-1.855.049-3.847,1.069-5.476.914-1.988,3.16-2.831,5.121-3.4a6.012,6.012,0,0,1-4.216-1.62,8.739,8.739,0,0,1-1.961-5.911c-.009-3.852,0-7.7,0-11.551.217-3-2.454-5.6-5.29-6.044-2.432-.142-4.872.022-7.3-.084q-.007,15.889,0,31.773c-4.673-5.76-9.261-11.586-13.934-17.346-3.768-4.832-7.752-9.505-11.413-14.418-2.516.084-5.032-.058-7.539.075a6.468,6.468,0,0,0-5.263,5.52m4.451-18.172c1.061-.049,2.1-.262,3.164-.3,11.675-.009,23.355.013,35.03-.013,1.216-.013,2.41.257,3.621.311a18.8,18.8,0,0,1,16.179,12.558c1.154,3.244,1.216,6.736,1.189,10.144q0,16.414,0,32.829c-.107,3.6-.533,7.322-2.37,10.5a18.892,18.892,0,0,1-16.343,10.038q-19.769-.033-39.539-.009a18.855,18.855,0,0,1-17.786-15.833,15.567,15.567,0,0,1-.324-4.717q-.007-17.3,0-34.6a23.663,23.663,0,0,1,.284-5.374A19.062,19.062,0,0,1-612.37,600.71c.888-.111,1.779-.253,2.663-.4" transform="translate(626.902 -600)" fill="#3c5afd"/>
</svg>
